<mxfile host="app.diagrams.net" modified="2024-03-18T14:46:10.281Z" agent="Mozilla/5.0 (Windows NT 10.0; Win64; x64) AppleWebKit/537.36 (KHTML, like Gecko) Chrome/121.0.0.0 Safari/537.36 OPR/107.0.0.0" etag="0xjtY-t7XPcezCmAsEmP" version="24.0.7" type="google">
  <diagram id="C5RBs43oDa-KdzZeNtuy" name="Page-1">
    <mxGraphModel grid="1" page="1" gridSize="10" guides="1" tooltips="1" connect="1" arrows="1" fold="1" pageScale="1" pageWidth="827" pageHeight="1169" math="0" shadow="0">
      <root>
        <mxCell id="WIyWlLk6GJQsqaUBKTNV-0" />
        <mxCell id="WIyWlLk6GJQsqaUBKTNV-1" parent="WIyWlLk6GJQsqaUBKTNV-0" />
        <mxCell id="Htxk5FBhZOUi19am0n9G-5" value="" style="edgeStyle=orthogonalEdgeStyle;rounded=0;orthogonalLoop=1;jettySize=auto;html=1;" edge="1" parent="WIyWlLk6GJQsqaUBKTNV-1" source="Htxk5FBhZOUi19am0n9G-2" target="Htxk5FBhZOUi19am0n9G-4">
          <mxGeometry relative="1" as="geometry" />
        </mxCell>
        <mxCell id="Htxk5FBhZOUi19am0n9G-6" value="No" style="edgeLabel;html=1;align=center;verticalAlign=middle;resizable=0;points=[];" connectable="0" vertex="1" parent="Htxk5FBhZOUi19am0n9G-5">
          <mxGeometry x="-0.072" y="2" relative="1" as="geometry">
            <mxPoint as="offset" />
          </mxGeometry>
        </mxCell>
        <mxCell id="Htxk5FBhZOUi19am0n9G-8" value="" style="edgeStyle=orthogonalEdgeStyle;rounded=0;orthogonalLoop=1;jettySize=auto;html=1;" edge="1" parent="WIyWlLk6GJQsqaUBKTNV-1" source="Htxk5FBhZOUi19am0n9G-2" target="Htxk5FBhZOUi19am0n9G-7">
          <mxGeometry relative="1" as="geometry" />
        </mxCell>
        <mxCell id="Htxk5FBhZOUi19am0n9G-9" value="Yes" style="edgeLabel;html=1;align=center;verticalAlign=middle;resizable=0;points=[];" connectable="0" vertex="1" parent="Htxk5FBhZOUi19am0n9G-8">
          <mxGeometry x="0.06" y="-1" relative="1" as="geometry">
            <mxPoint as="offset" />
          </mxGeometry>
        </mxCell>
        <mxCell id="Htxk5FBhZOUi19am0n9G-2" value="Does the guest have a reservation?" style="rhombus;whiteSpace=wrap;html=1;rounded=1;glass=0;strokeWidth=1;shadow=0;" vertex="1" parent="WIyWlLk6GJQsqaUBKTNV-1">
          <mxGeometry x="70" y="210" width="160" height="150" as="geometry" />
        </mxCell>
        <mxCell id="Htxk5FBhZOUi19am0n9G-11" style="edgeStyle=orthogonalEdgeStyle;rounded=0;orthogonalLoop=1;jettySize=auto;html=1;exitX=1;exitY=0.5;exitDx=0;exitDy=0;entryX=0;entryY=0.5;entryDx=0;entryDy=0;" edge="1" parent="WIyWlLk6GJQsqaUBKTNV-1" source="Htxk5FBhZOUi19am0n9G-4" target="Htxk5FBhZOUi19am0n9G-10">
          <mxGeometry relative="1" as="geometry" />
        </mxCell>
        <mxCell id="Htxk5FBhZOUi19am0n9G-4" value="Takes the guest(s) to any free space" style="whiteSpace=wrap;html=1;rounded=1;glass=0;strokeWidth=1;shadow=0;" vertex="1" parent="WIyWlLk6GJQsqaUBKTNV-1">
          <mxGeometry x="90" y="420" width="120" height="60" as="geometry" />
        </mxCell>
        <mxCell id="Htxk5FBhZOUi19am0n9G-12" style="edgeStyle=orthogonalEdgeStyle;rounded=0;orthogonalLoop=1;jettySize=auto;html=1;exitX=0.5;exitY=1;exitDx=0;exitDy=0;entryX=0.5;entryY=0;entryDx=0;entryDy=0;" edge="1" parent="WIyWlLk6GJQsqaUBKTNV-1" source="Htxk5FBhZOUi19am0n9G-7" target="Htxk5FBhZOUi19am0n9G-10">
          <mxGeometry relative="1" as="geometry" />
        </mxCell>
        <mxCell id="Htxk5FBhZOUi19am0n9G-7" value="Takes the guest(s) to reserved seat(s)" style="whiteSpace=wrap;html=1;rounded=1;glass=0;strokeWidth=1;shadow=0;" vertex="1" parent="WIyWlLk6GJQsqaUBKTNV-1">
          <mxGeometry x="330" y="255" width="120" height="60" as="geometry" />
        </mxCell>
        <mxCell id="Htxk5FBhZOUi19am0n9G-14" style="edgeStyle=orthogonalEdgeStyle;rounded=0;orthogonalLoop=1;jettySize=auto;html=1;exitX=1;exitY=0.5;exitDx=0;exitDy=0;entryX=0;entryY=0.5;entryDx=0;entryDy=0;" edge="1" parent="WIyWlLk6GJQsqaUBKTNV-1" source="Htxk5FBhZOUi19am0n9G-10" target="Htxk5FBhZOUi19am0n9G-13">
          <mxGeometry relative="1" as="geometry" />
        </mxCell>
        <mxCell id="Htxk5FBhZOUi19am0n9G-10" value="Server comes to guest" style="rounded=1;whiteSpace=wrap;html=1;" vertex="1" parent="WIyWlLk6GJQsqaUBKTNV-1">
          <mxGeometry x="330" y="420" width="120" height="60" as="geometry" />
        </mxCell>
        <mxCell id="Htxk5FBhZOUi19am0n9G-16" value="" style="edgeStyle=orthogonalEdgeStyle;rounded=0;orthogonalLoop=1;jettySize=auto;html=1;" edge="1" parent="WIyWlLk6GJQsqaUBKTNV-1" source="Htxk5FBhZOUi19am0n9G-13" target="Htxk5FBhZOUi19am0n9G-15">
          <mxGeometry relative="1" as="geometry" />
        </mxCell>
        <mxCell id="Htxk5FBhZOUi19am0n9G-13" value="Guest orders" style="rounded=1;whiteSpace=wrap;html=1;" vertex="1" parent="WIyWlLk6GJQsqaUBKTNV-1">
          <mxGeometry x="510" y="420" width="120" height="60" as="geometry" />
        </mxCell>
        <mxCell id="Htxk5FBhZOUi19am0n9G-18" value="" style="edgeStyle=orthogonalEdgeStyle;rounded=0;orthogonalLoop=1;jettySize=auto;html=1;" edge="1" parent="WIyWlLk6GJQsqaUBKTNV-1" source="Htxk5FBhZOUi19am0n9G-15" target="Htxk5FBhZOUi19am0n9G-17">
          <mxGeometry relative="1" as="geometry" />
        </mxCell>
        <mxCell id="Htxk5FBhZOUi19am0n9G-15" value="Server takes order to kitchen" style="whiteSpace=wrap;html=1;rounded=1;" vertex="1" parent="WIyWlLk6GJQsqaUBKTNV-1">
          <mxGeometry x="510" y="310" width="120" height="60" as="geometry" />
        </mxCell>
        <mxCell id="Htxk5FBhZOUi19am0n9G-20" value="" style="edgeStyle=orthogonalEdgeStyle;rounded=0;orthogonalLoop=1;jettySize=auto;html=1;" edge="1" parent="WIyWlLk6GJQsqaUBKTNV-1" source="Htxk5FBhZOUi19am0n9G-17" target="Htxk5FBhZOUi19am0n9G-19">
          <mxGeometry relative="1" as="geometry" />
        </mxCell>
        <mxCell id="Htxk5FBhZOUi19am0n9G-17" value="Brings food/drinks to guest(s)" style="whiteSpace=wrap;html=1;rounded=1;" vertex="1" parent="WIyWlLk6GJQsqaUBKTNV-1">
          <mxGeometry x="510" y="200" width="120" height="60" as="geometry" />
        </mxCell>
        <mxCell id="iksD2TzfxxDSY2YqZ6oN-1" style="edgeStyle=orthogonalEdgeStyle;rounded=0;orthogonalLoop=1;jettySize=auto;html=1;exitX=0;exitY=0.5;exitDx=0;exitDy=0;entryX=1;entryY=0.5;entryDx=0;entryDy=0;" edge="1" parent="WIyWlLk6GJQsqaUBKTNV-1" source="Htxk5FBhZOUi19am0n9G-19" target="iksD2TzfxxDSY2YqZ6oN-0">
          <mxGeometry relative="1" as="geometry" />
        </mxCell>
        <mxCell id="Htxk5FBhZOUi19am0n9G-19" value="Guest(s) pays" style="whiteSpace=wrap;html=1;rounded=1;" vertex="1" parent="WIyWlLk6GJQsqaUBKTNV-1">
          <mxGeometry x="510" y="90" width="120" height="60" as="geometry" />
        </mxCell>
        <mxCell id="iksD2TzfxxDSY2YqZ6oN-5" style="edgeStyle=orthogonalEdgeStyle;rounded=0;orthogonalLoop=1;jettySize=auto;html=1;exitX=0.5;exitY=0;exitDx=0;exitDy=0;entryX=0.5;entryY=1;entryDx=0;entryDy=0;" edge="1" parent="WIyWlLk6GJQsqaUBKTNV-1" source="iksD2TzfxxDSY2YqZ6oN-0" target="iksD2TzfxxDSY2YqZ6oN-3">
          <mxGeometry relative="1" as="geometry" />
        </mxCell>
        <mxCell id="iksD2TzfxxDSY2YqZ6oN-0" value="Guest(s) leaves" style="rounded=1;whiteSpace=wrap;html=1;" vertex="1" parent="WIyWlLk6GJQsqaUBKTNV-1">
          <mxGeometry x="330" y="90" width="120" height="60" as="geometry" />
        </mxCell>
        <mxCell id="iksD2TzfxxDSY2YqZ6oN-8" style="edgeStyle=orthogonalEdgeStyle;rounded=0;orthogonalLoop=1;jettySize=auto;html=1;exitX=0.5;exitY=1;exitDx=0;exitDy=0;entryX=0.5;entryY=0;entryDx=0;entryDy=0;" edge="1" parent="WIyWlLk6GJQsqaUBKTNV-1" source="iksD2TzfxxDSY2YqZ6oN-2" target="iksD2TzfxxDSY2YqZ6oN-6">
          <mxGeometry relative="1" as="geometry" />
        </mxCell>
        <mxCell id="iksD2TzfxxDSY2YqZ6oN-2" value="START" style="ellipse;whiteSpace=wrap;html=1;" vertex="1" parent="WIyWlLk6GJQsqaUBKTNV-1">
          <mxGeometry x="125" y="10" width="50" height="50" as="geometry" />
        </mxCell>
        <mxCell id="iksD2TzfxxDSY2YqZ6oN-3" value="END" style="ellipse;whiteSpace=wrap;html=1;" vertex="1" parent="WIyWlLk6GJQsqaUBKTNV-1">
          <mxGeometry x="365" y="10" width="50" height="50" as="geometry" />
        </mxCell>
        <mxCell id="iksD2TzfxxDSY2YqZ6oN-7" style="edgeStyle=orthogonalEdgeStyle;rounded=0;orthogonalLoop=1;jettySize=auto;html=1;exitX=0.5;exitY=1;exitDx=0;exitDy=0;entryX=0.5;entryY=0;entryDx=0;entryDy=0;" edge="1" parent="WIyWlLk6GJQsqaUBKTNV-1" source="iksD2TzfxxDSY2YqZ6oN-6" target="Htxk5FBhZOUi19am0n9G-2">
          <mxGeometry relative="1" as="geometry" />
        </mxCell>
        <mxCell id="iksD2TzfxxDSY2YqZ6oN-6" value="Hostess greets and seats guests" style="rounded=1;whiteSpace=wrap;html=1;" vertex="1" parent="WIyWlLk6GJQsqaUBKTNV-1">
          <mxGeometry x="90" y="90" width="120" height="60" as="geometry" />
        </mxCell>
      </root>
    </mxGraphModel>
  </diagram>
</mxfile>
